<svg xmlns="http://www.w3.org/2000/svg" width="9" height="5" viewBox="0 0 9 5">
  <g id="Group_145577" data-name="Group 145577" transform="translate(9) rotate(90)">
    <g id="_15" data-name="15" transform="translate(0 0)">
      <path id="Path_7808" data-name="Path 7808" d="M.628,9a.624.624,0,0,1-.58-.4.656.656,0,0,1,.137-.7l3.31-3.4L.185,1.1a.659.659,0,0,1,0-.913.615.615,0,0,1,.887,0L4.818,4.045a.656.656,0,0,1,0,.906L1.072,8.807A.616.616,0,0,1,.628,9Z" transform="translate(0 0)" fill="#fff"/>
    </g>
  </g>
</svg>
